<?xml version="1.0" encoding="UTF-8"?>
<svg width="3620px" height="1940px" viewBox="0 0 3620 1940" version="1.1" xmlns="http://www.w3.org/2000/svg" xmlns:xlink="http://www.w3.org/1999/xlink">
    <title>Group 5</title>
    <g id="Page-1" stroke="none" stroke-width="1" fill="none" fill-rule="evenodd">
        <g id="Group-5" fill="#FFFFFF" fill-rule="nonzero">
            <g id="Group" transform="translate(0.000000, 396.000000)">
                <path d="M946.97476,1544 L123.06794,720.073577 C-40.8692908,556.107496 -41.0364458,289.490206 122.650053,125.774901 C286.378341,-37.9821994 552.739776,-37.9821994 716.426275,125.774901 L946.849394,355.653424 L1180.23951,122.765582 C1343.92601,-40.9497222 1610.28745,-40.9079261 1774.01573,122.807378 C1853.33077,202.136367 1897,307.587915 1897,419.768634 C1897,531.949353 1853.33077,637.400901 1774.01573,716.72989 L946.97476,1544 Z M419.559059,94.4696259 C335.480111,94.4696259 251.401164,126.485435 187.422602,190.517052 C59.381899,318.538492 59.5908427,527.05921 187.840489,655.331426 L947.016549,1414.5157 L1709.36855,651.945942 C1771.38304,589.920537 1805.52445,507.456842 1805.52445,419.726838 C1805.52445,331.996834 1771.38304,249.533139 1709.36855,187.507734 C1647.35406,125.482329 1564.90487,91.3349188 1477.19031,91.3349188 C1389.47574,91.3349188 1307.02655,125.482329 1245.01206,187.507734 L946.932971,484.928746 L651.820882,190.517052 C587.758741,126.527231 503.638006,94.4696259 419.559059,94.4696259 Z" id="Shape"></path>
                <path d="M442,662 C322.369649,662 225,564.672194 225,445 C225,325.369649 322.327806,228 442,228 C561.630351,228 659,325.327806 659,445 C658.958157,564.672194 561.630351,662 442,662 Z M442,319.720787 C372.874663,319.720787 316.678943,375.916506 316.678943,445.041843 C316.678943,514.167181 372.874663,570.3629 442,570.3629 C511.125337,570.3629 567.321057,514.167181 567.321057,445.041843 C567.321057,375.916506 511.083494,319.720787 442,319.720787 Z" id="Shape"></path>
                <ellipse id="Oval" cx="537.5" cy="441.5" rx="111.5" ry="134.5"></ellipse>
                <ellipse id="Oval" cx="1524.5" cy="441.5" rx="111.5" ry="134.5"></ellipse>
                <path d="M1430,662 C1310.36965,662 1213,564.672194 1213,445 C1213,325.369649 1310.32781,228 1430,228 C1549.63035,228 1647,325.327806 1647,445 C1647,564.672194 1549.67219,662 1430,662 Z M1430,319.720787 C1360.87466,319.720787 1304.67894,375.916506 1304.67894,445.041843 C1304.67894,514.167181 1360.87466,570.3629 1430,570.3629 C1499.12534,570.3629 1555.32106,514.167181 1555.32106,445.041843 C1555.32106,375.916506 1499.12534,319.720787 1430,319.720787 Z" id="Shape"></path>
                <circle id="Oval" cx="939" cy="692" r="73"></circle>
                <path d="M938.812609,1084 C817.328959,1084 703.406705,1024.17806 634.142644,923.958528 C619.771813,903.152718 624.91022,874.560428 645.714504,860.159626 C666.477013,845.758824 695.009796,850.907948 709.380626,871.75562 C761.558439,947.234243 847.323891,992.320475 938.812609,992.320475 C1028.17077,992.320475 1112.7665,948.908755 1165.15319,876.193077 C1179.94178,855.680306 1208.51634,851.033536 1229.02819,865.852966 C1249.49827,880.672396 1254.13537,909.306549 1239.34678,929.861182 C1169.83207,1026.35493 1057.45551,1084 938.812609,1084 Z" id="Path"></path>
            </g>
            <g id="Group" transform="translate(1897.000000, 0.000000)">
                <path d="M1206.41085,308.770052 C1204.62758,218.414051 1207.03876,120.557748 1206.23503,30.3024228 C1203.37175,-5.53795176 1148.71826,-11.4274515 1137.41584,22.5756005 C1132.56836,75.6314358 1135.95909,137.395677 1134.1507,190.854213 L1134,190.854213 C1134.10047,193.673119 1134.10047,196.492025 1134,199.31093 L1134.1507,199.31093 C1135.95909,252.794635 1132.56836,307.209586 1137.41584,360.29059 C1147.63826,390.191127 1192.67213,390.518322 1204.30106,361.54903 C1209.12343,344.434245 1205.90852,326.337876 1206.41085,308.770052 Z" id="Path"></path>
                <path d="M1052.22995,227.410848 C1142.58595,225.627577 1240.44225,228.03876 1330.69758,227.235032 C1366.53795,224.371752 1372.42745,169.718265 1338.4244,158.415843 C1285.36856,153.56836 1223.60432,156.959086 1170.14579,155.150699 L1170.14579,155 C1167.32688,155.100466 1164.50798,155.100466 1161.68907,155 L1161.68907,155.150699 C1108.20536,156.959086 1053.79041,153.56836 1000.70941,158.415843 C970.808873,168.638255 970.481678,213.672126 999.45097,225.301062 C1016.59092,230.123429 1034.66212,226.908518 1052.22995,227.410848 Z" id="Path"></path>
                <path d="M445.593381,32.1143672 C515.064951,13.4292347 589.438695,46.8150445 595.397678,117.998598 C599.470907,155.090702 582.624838,193.367937 552.754494,215.532423 C540.735955,224.912615 526.529942,231.493878 511.619914,234.544962 C497.388757,237.848202 481.271846,235.377076 468.675009,243.824292 C444.788792,259.483161 449.767183,300.433247 478.229496,307.518822 C508.451847,315.411295 542.495993,302.223552 571.260027,315.814744 C597.182858,332.658745 588.231813,378.22328 556.551146,381.173501 C524.920765,381.526519 496.936176,383.871567 467.367553,378.626729 C427.058034,370.336932 384.880257,347.799864 381.099961,297.974913 C381.062671,297.483427 381,296.452987 381,295.802448 C381,295.15191 381,295.124946 381,294.343975 C381.01613,276.444461 381,224.935679 381,169.576159 C381,68.6498541 415.870323,40.1087059 445.593381,32.1143672 Z M487.708553,91.5978966 C439.634398,90.7153517 433.348551,161.293732 480.416971,169.16099 C536.084429,176.347427 544.281173,94.1194536 487.708553,91.5978966 Z" id="Shape"></path>
                <path d="M86.7413724,177.18033 C46.0551872,185.17369 11.6979642,219.265244 3.3598077,260.064159 C-1.86409756,289.717759 0.471590848,317.782774 0.823199856,349.504056 C3.76164656,381.275771 49.1443235,390.252541 65.9210962,364.255209 C79.458043,335.40851 66.322935,301.266525 74.1839078,270.957319 C81.2412029,242.438423 122.027848,237.420509 137.624219,261.375373 C144.40525,271.562494 144.128985,284.09467 145.485192,296.046887 C145.686111,320.026966 146.03772,345.494769 146.13818,356.060124 C149.076626,387.831839 194.459303,396.808609 211.236076,370.811277 C217.590153,357.24526 218.067337,325.070095 217.590153,295.39128 C218.871015,283.640789 218.720325,271.385985 225.375781,261.350157 C240.972152,237.395294 281.758797,242.387991 288.816092,270.932103 C296.677065,301.24131 283.541957,335.383295 297.078904,364.229994 C313.855677,390.227325 359.238353,381.250555 362.1768,349.478841 C362.528409,317.757558 364.864098,289.692544 359.640192,260.038944 C351.302036,219.214813 316.944813,185.148475 276.258628,177.155115 C246.773701,172.944102 116.176069,172.944102 86.7413724,177.18033 Z" id="Path"></path>
                <path d="M864.231991,174.000579 C878.398771,174.858674 892.012946,183.41439 895.805826,198.80963 C903.667886,229.145825 890.530961,340.925367 904.069781,369.797753 C920.848875,395.818233 966.237833,386.83347 969.176686,355.033465 C969.528344,323.283936 971.864356,217.586776 966.639727,187.906771 C958.300417,147.046288 923.938439,112.949616 883.246623,104.949139 C868.442745,102.818787 828.510314,104.938737 788.502481,104.949139 C748.883451,104.95944 709.190478,102.83949 693.753377,104.949139 C653.061561,112.949616 618.699583,147.046288 610.360273,187.906771 C605.135644,217.586776 607.471656,323.283936 607.823314,355.033465 C610.762167,386.83347 656.151125,395.818233 672.930219,369.797753 C686.469039,340.925367 673.332114,229.120587 681.194174,198.80963 C685.213119,182.556294 700.133452,173.950102 715.154258,173.950102 L864.231991,174.000579 Z" id="Path"></path>
                <path d="M1710.5552,284.274758 C1710.54248,309.798303 1702.30489,362.34704 1651.58626,383.381835 C1601.90327,403.987115 1509.83109,393.351355 1499.1785,392.526599 C1473.24425,384.848271 1467.10061,349.779709 1486.81567,332.157317 C1497.67477,322.283463 1511.40137,320.066154 1525.71436,319.815469 C1539.24558,319.578476 1593.32097,320.103308 1606.49199,317.485431 C1622.63284,314.27727 1635.85402,306.18358 1637.30984,285.860774 C1639.65147,251.069135 1606.26044,251.069135 1577.05678,244.901298 C1557.53783,241.08802 1538.70934,237.021571 1522.62004,226.070512 C1441.41815,172.120816 1469.89546,48.235395 1563.96376,30.5626526 C1594.4302,24.41999 1625.83065,26.3879046 1656.69996,26.0354567 C1676.5661,26.0354567 1700.7858,25.1500605 1714.23132,42.822803 C1720.17353,49.7710607 1730.5673,70.911342 1714.23132,88.9639689 C1697.89534,107.016596 1674.42351,99.8941805 1651.58626,100.422852 C1627.54043,100.82565 1603.29317,99.1137603 1579.37323,101.65642 C1546.18747,106.389291 1539.36399,156.084439 1570.08223,169.477457 C1578.11555,172.903443 1587.86381,173.831174 1599,175.00525 C1601.62792,176.069799 1612.12179,175.150327 1638.14652,183.10966 C1664.17125,191.068993 1676.97657,204.54391 1679.58863,207.220876 C1699.3383,227.461368 1711.44022,255.1863 1710.5552,284.274758 Z" id="Path"></path>
                <path d="M1453.41085,315.072559 C1451.62758,225.084783 1454.03876,237.091509 1453.23503,147.178932 C1450.37175,111.484617 1395.71826,105.619118 1384.41584,139.483599 C1379.56836,192.323217 1382.95909,144.371514 1381.1507,197.637259 L1381,197.637259 C1381.10047,200.444677 1381.10047,203.252095 1381,206.059513 L1381.1507,206.059513 C1382.95909,259.325257 1379.56836,313.518452 1384.41584,366.383137 C1394.63826,396.161822 1439.67213,396.487683 1451.30106,367.636449 C1456.12343,350.566344 1452.90852,332.568789 1453.41085,315.072559 Z" id="Path"></path>
                <circle id="Oval" cx="1418.5" cy="70.5" r="37.5"></circle>
            </g>
        </g>
    </g>
</svg>