<?xml version="1.0" encoding="UTF-8"?>
<svg width="3221px" height="740px" viewBox="0 0 3221 740" version="1.1" xmlns="http://www.w3.org/2000/svg" xmlns:xlink="http://www.w3.org/1999/xlink">
    <title>Group</title>
    <g id="Page-1" stroke="none" stroke-width="1" fill="none" fill-rule="evenodd">
        <g id="Group-5" transform="translate(0.000000, -726.000000)" fill="#FFFFFF" fill-rule="nonzero">
            <g id="Group" transform="translate(0.000000, 726.000000)">
                <path d="M2254.56596,576.693239 C2251.23835,407.934338 2255.73766,225.167038 2254.23789,56.5961699 C2248.89495,-10.3432937 2146.91046,-21.3431775 2125.81992,42.1646985 C2116.77442,141.257669 2123.10158,256.615424 2119.72709,356.460523 L2119.44589,356.460523 C2119.63336,361.725425 2119.63336,366.990326 2119.44589,372.255228 L2119.72709,372.255228 C2123.10158,472.147335 2116.77442,573.77874 2125.81992,672.918718 C2144.89514,728.764281 2228.92924,729.375386 2250.62906,675.26912 C2259.6277,643.303646 2253.62861,609.504858 2254.56596,576.693239 Z" id="Path"></path>
                <path d="M1967.42983,424.66888 C2136.20924,421.341665 2318.99874,425.840434 2487.59009,424.340844 C2554.53769,418.998556 2565.53891,317.026454 2502.02332,295.938474 C2402.91831,286.894073 2287.54654,293.220467 2187.68931,289.84639 L2187.68931,289.565217 C2182.42377,289.752666 2177.15822,289.752666 2171.89268,289.565217 L2171.89268,289.84639 C2071.98844,293.220467 1970.34469,286.894073 1871.19266,295.938474 C1815.34031,315.011381 1814.72913,399.035268 1868.84197,420.732457 C1900.85835,429.729995 1934.61423,423.731636 1967.42983,424.66888 Z" id="Path"></path>
                <path d="M831.9714,59.9542862 C961.939066,25.0692697 1101.07773,87.4003517 1112.22582,220.299567 C1119.84603,289.550274 1088.33035,361.013614 1032.4488,402.39456 C1009.96447,419.907316 983.387812,432.194491 955.494077,437.890844 C928.870377,444.05797 898.718802,439.444395 875.152595,455.21529 C830.466173,484.450293 839.779764,560.903827 893.027163,574.132548 C949.567246,588.867742 1013.25716,564.246315 1067.06902,589.620979 C1115.56554,621.068615 1098.81989,706.137294 1039.55159,711.645338 C980.377358,712.304421 928.023687,716.68261 872.706601,706.890531 C797.295407,691.413537 718.389069,649.336983 711.316877,556.314135 C711.247115,555.396533 711.12987,553.472709 711.12987,552.258158 C711.12987,551.043606 711.12987,550.993265 711.12987,549.535197 C711.160047,516.116926 711.12987,419.950377 711.12987,316.594525 C711.12987,128.165794 776.365397,74.8796627 831.9714,59.9542862 Z M910.760617,171.009635 C820.823314,169.361929 809.063729,301.13129 897.119499,315.819407 C1001.26238,329.236437 1016.59688,175.717365 910.760617,171.009635 Z" id="Shape"></path>
                <path d="M162.24031,330.909314 C86.1412223,345.870908 21.8797706,409.681869 6.28415514,486.047353 C-3.48659189,541.551562 0.882059427,594.082331 1.53970586,653.456731 C7.03575107,712.925526 91.9191159,729.727821 123.298246,681.067243 C148.617634,627.073353 124.049842,563.167997 138.752937,506.436655 C151.952841,453.056331 228.239827,443.664038 257.411144,488.501621 C270.094325,507.569394 269.577603,531.026529 272.114239,553.398124 C272.490037,598.282905 273.147684,645.952336 273.335583,665.72807 C278.831628,725.196865 363.714993,741.99916 395.094122,693.338582 C406.978733,667.94635 407.871253,607.722396 406.978733,552.17099 C409.374445,530.176975 409.092597,507.239011 421.540904,488.454424 C450.712221,443.61684 526.999207,452.961936 540.199111,506.389457 C554.902206,563.1208 530.334414,627.026156 555.653802,681.020046 C587.032932,729.680623 671.916297,712.878329 677.412342,653.409534 C678.069989,594.035134 682.43864,541.504365 672.667893,486.000156 C657.072277,409.587474 592.810826,345.82371 516.711738,330.862117 C461.563387,322.980141 217.294711,322.980141 162.24031,330.909314 Z" id="Path"></path>
                <path d="M1615.92901,325.831602 C1642.42643,327.433079 1667.89027,343.400748 1674.98444,372.133131 C1689.68957,428.750056 1665.11838,637.365998 1690.44127,691.250992 C1721.82474,739.81343 1806.71985,723.045022 1812.21666,663.696166 C1812.8744,604.441513 1817.24365,407.177218 1807.47155,351.784951 C1791.87378,275.526381 1727.60343,211.891218 1651.49381,196.959799 C1623.80477,192.983889 1549.1155,196.940385 1474.28519,196.959799 C1400.1821,196.979024 1325.94071,193.022528 1297.06729,196.959799 C1220.95767,211.891218 1156.68733,275.526381 1141.08955,351.784951 C1131.31745,407.177218 1135.68671,604.441513 1136.34445,663.696166 C1141.84125,723.045022 1226.73637,739.81343 1258.11984,691.250992 C1283.44273,637.365998 1258.87154,428.702954 1273.57667,372.133131 C1281.09367,341.799271 1309.00053,325.737398 1337.09531,325.737398 L1615.92901,325.831602 Z" id="Path"></path>
                <path d="M3197.74827,531.122374 C3197.7245,578.840305 3182.33347,677.083596 3087.57131,716.409517 C2994.74412,754.932433 2822.71741,735.048186 2802.81422,733.506251 C2754.35894,719.151115 2742.88022,653.588152 2779.71564,620.64194 C2800.00466,602.182127 2825.6513,598.036722 2852.39354,597.56805 C2877.67515,597.124977 2978.70905,598.106185 3003.31764,593.211893 C3033.47504,587.214026 3058.17734,572.082346 3060.89739,534.087533 C3065.27247,469.042296 3002.88502,469.042296 2948.32119,457.511122 C2911.8522,450.381951 2876.67324,442.779458 2846.61215,422.305741 C2694.89538,321.443264 2748.1021,89.8313907 2923.85833,56.7910461 C2980.78152,45.3069378 3039.4498,48.9860825 3097.12569,48.3271582 C3134.24338,48.3271582 3179.49521,46.6718523 3204.61668,79.7121968 C3215.71906,92.7024178 3235.13866,132.225552 3204.61668,165.976116 C3174.09471,199.726679 3130.24018,186.410859 3087.57131,187.399246 C3042.64433,188.152302 2997.341,184.951813 2952.64923,189.705481 C2890.64529,198.553892 2877.89638,291.462211 2935.29001,316.501333 C2950.29938,322.906436 2968.51294,324.64089 2989.31968,326.835902 C2994.22966,328.826146 3013.83629,327.107134 3062.46063,341.987625 C3111.08498,356.868116 3135.01031,382.060353 3139.89064,387.065116 C3176.79073,424.906036 3199.40182,476.739604 3197.74827,531.122374 Z" id="Path"></path>
                <path d="M2716.85401,588.96553 C2713.52639,420.785052 2718.02571,443.224732 2716.52593,275.184795 C2711.183,208.474767 2609.19851,197.512585 2588.10796,260.802787 C2579.06246,359.556115 2585.38963,269.937939 2582.01514,369.487664 L2581.73393,369.487664 C2581.9214,374.73452 2581.9214,379.981377 2581.73393,385.228233 L2582.01514,385.228233 C2585.38963,484.777959 2579.06246,586.061021 2588.10796,684.861196 C2607.18319,740.515348 2691.21728,741.124358 2712.91711,687.203542 C2721.91574,655.300783 2715.91665,621.664687 2716.85401,588.96553 Z" id="Path"></path>
                <ellipse id="Oval" cx="2650.91625" cy="132.449275" rx="70.2549118" ry="70.2463768"></ellipse>
            </g>
        </g>
    </g>
</svg>