<?xml version="1.0" encoding="UTF-8"?>
<svg width="3003px" height="690px" viewBox="0 0 3003 690" version="1.1" xmlns="http://www.w3.org/2000/svg" xmlns:xlink="http://www.w3.org/1999/xlink">
    <title>Group</title>
    <g id="Page-1" stroke="none" stroke-width="1" fill="none" fill-rule="evenodd">
        <g id="Group-5" transform="translate(0.000000, -1207.000000)" fill="#FFFFFF" fill-rule="nonzero">
            <g id="Group" transform="translate(0.000000, 1207.000000)">
                <path d="M2101.97504,537.727479 C2098.87263,380.371207 2103.06743,209.953049 2101.66917,52.7721044 C2096.68784,-9.64442251 2001.60575,-19.9010709 1981.94263,39.3157324 C1973.50934,131.713231 1979.40827,239.276544 1976.26217,332.375352 L1976,332.375352 C1976.17478,337.284517 1976.17478,342.193683 1976,347.102848 L1976.26217,347.102848 C1979.40827,440.245488 1973.50934,535.009906 1981.94263,627.451237 C1999.72683,679.523452 2078.07343,680.093265 2098.30459,629.642828 C2106.69418,599.837183 2101.10112,568.322097 2101.97504,537.727479 Z" id="Path"></path>
                <path d="M1834.27252,395.975036 C1991.62879,392.872634 2162.04695,397.067432 2319.2279,395.669166 C2381.64442,390.687843 2391.90107,295.605748 2332.68427,275.942631 C2240.28677,267.509339 2132.72346,273.408274 2039.62465,270.262175 L2039.62465,270 C2034.71548,270.174783 2029.80632,270.174783 2024.89715,270 L2024.89715,270.262175 C1931.75451,273.408274 1836.99009,267.509339 1744.54876,275.942631 C1692.47655,293.726828 1691.90673,372.073425 1742.35717,392.304588 C1772.20665,400.694185 1803.6779,395.10112 1834.27252,395.975036 Z" id="Path"></path>
                <path d="M775.662873,55.903321 C896.834218,23.3754002 1026.55586,81.4949225 1036.94944,205.414461 C1044.05391,269.986067 1014.67123,336.620803 962.571792,375.205739 C941.609225,391.5352 916.831294,402.99216 890.825431,408.303625 C866.003646,414.054053 837.892755,409.752206 815.921528,424.4575 C774.259521,451.717165 782.942761,523.004919 832.586331,535.339808 C885.299733,549.079381 944.679057,526.121564 994.848884,549.781724 C1040.06313,579.104519 1024.45084,658.425315 969.193859,663.561194 C914.024591,664.175744 865.21426,668.258109 813.641081,659.127658 C743.333781,644.696406 669.76789,605.462862 663.17435,518.725342 C663.10931,517.86974 663,516.075904 663,514.943417 C663,513.81093 663,513.76399 663,512.40444 C663.028134,481.24416 663,391.575352 663,295.203003 C663,119.505943 723.820331,69.820226 775.662873,55.903321 Z M849.119569,159.45493 C765.269299,157.918556 754.305613,280.784581 836.401694,294.480258 C933.496097,306.990732 947.792744,163.84457 849.119569,159.45493 Z" id="Shape"></path>
                <path d="M151.259749,308.550577 C80.3111116,322.501252 20.3989293,382.000662 5.85883822,453.206316 C-3.25061641,504.96024 0.8223609,553.941633 1.43549727,609.304249 C6.5595655,664.754883 85.6979525,680.421887 114.953316,635.049186 C138.559067,584.703532 115.654044,525.116105 129.362021,472.217962 C141.668544,422.444417 212.792363,413.686738 239.98934,455.494755 C251.814113,473.274164 251.332363,495.146358 253.697318,516.006359 C254.047681,557.858384 254.660818,602.306908 254.835999,620.746444 C259.960068,676.197077 339.098455,691.864081 368.353819,646.491381 C379.434069,622.81484 380.266182,566.660072 379.434069,514.862139 C381.667637,494.354207 381.404864,472.966105 393.01066,455.450746 C420.207637,413.642729 491.331456,422.3564 503.637979,472.173953 C517.345956,525.072097 494.440933,584.659524 518.046684,635.005178 C547.302047,680.377879 626.440435,664.710874 631.564503,609.260241 C632.177639,553.897625 636.250616,504.916232 627.141162,453.162308 C612.601071,381.912645 552.688888,322.457243 481.740251,308.506568 C430.324387,301.157159 202.588022,301.157159 151.259749,308.550577 Z" id="Path"></path>
                <path d="M1506.56157,303.815953 C1531.26563,305.309223 1555.00605,320.197995 1561.62008,346.989 C1575.32995,399.780458 1552.42176,594.300728 1576.03077,644.544844 C1605.29019,689.826036 1684.43953,674.190629 1689.5643,618.85183 C1690.17753,563.600871 1694.25107,379.665244 1685.14035,328.015698 C1670.59825,256.909733 1610.67777,197.574243 1539.71932,183.651704 C1513.90429,179.944437 1444.27005,183.633602 1374.50433,183.651704 C1305.4166,183.66963 1236.19992,179.980465 1209.28068,183.651704 C1138.32223,197.574243 1078.40175,256.909733 1063.85965,328.015698 C1054.74893,379.665244 1058.82247,563.600871 1059.4357,618.85183 C1064.56047,674.190629 1143.70981,689.826036 1172.96923,644.544844 C1196.57824,594.300728 1173.67005,399.736538 1187.37992,346.989 C1194.38817,318.704725 1220.40627,303.728114 1246.59957,303.728114 L1506.56157,303.815953 Z" id="Path"></path>
                <path d="M2981.32196,495.235727 C2981.29981,539.729474 2966.95046,631.334705 2878.60188,668.003469 C2792.05731,703.923484 2631.67351,685.382768 2613.11739,683.945018 C2567.9416,670.559824 2557.23977,609.426791 2591.58214,578.706674 C2610.49798,561.494146 2634.40883,557.628835 2659.34113,557.191831 C2682.91166,556.778695 2777.1075,557.693605 2800.05057,553.130009 C2828.16689,547.537403 2851.19732,533.428133 2853.73327,498.000538 C2857.81225,437.350249 2799.64722,437.350249 2748.77632,426.598208 C2714.77558,419.950738 2681.97756,412.861928 2653.95103,393.771569 C2512.50258,299.724125 2562.10823,83.7617021 2725.96913,52.9538133 C2779.03971,42.2456582 2833.73727,45.676212 2887.50961,45.0618097 C2922.11514,45.0618097 2964.30429,43.5183488 2987.72552,74.3262376 C2998.07648,86.4387409 3016.18174,123.291393 2987.72552,154.761513 C2959.2693,186.231633 2918.38288,173.815531 2878.60188,174.737134 C2836.71559,175.439309 2794.47843,172.455069 2752.81144,176.887543 C2695.00398,185.138088 2683.11792,271.768818 2736.62711,295.116107 C2750.62063,301.088434 2767.60148,302.705695 2787,304.752395 C2791.57767,306.608163 2809.85731,305.0053 2855.19071,318.880353 C2900.52412,332.755406 2922.83016,356.245465 2927.38019,360.912067 C2961.78285,396.196169 2982.8636,444.527469 2981.32196,495.235727 Z" id="Path"></path>
                <path d="M2532.97504,549.170562 C2529.87263,392.35363 2534.06743,413.277115 2532.66917,256.591228 C2527.68784,194.388634 2432.60575,184.16714 2412.94263,243.180977 C2404.50934,335.261783 2410.40827,251.698889 2407.26217,344.522282 L2407,344.522282 C2407.17478,349.41462 2407.17478,354.306959 2407,359.199298 L2407.26217,359.199298 C2410.40827,452.022691 2404.50934,546.462303 2412.94263,638.58679 C2430.72683,690.480527 2509.07343,691.048388 2529.30459,640.77087 C2537.69418,611.023703 2532.10112,579.660317 2532.97504,549.170562 Z" id="Path"></path>
                <circle id="Oval" cx="2471.5" cy="123.5" r="65.5"></circle>
            </g>
        </g>
    </g>
</svg>